<?xml version="1.0" encoding="utf-8"?>
<!-- Generator: Adobe Illustrator 23.0.2, SVG Export Plug-In . SVG Version: 6.00 Build 0)  -->
<svg version="1.1" id="圖層_1" xmlns="http://www.w3.org/2000/svg" xmlns:xlink="http://www.w3.org/1999/xlink" x="0px" y="0px"
	 viewBox="0 0 595.28 595.28" style="enable-background:new 0 0 595.28 595.28;" xml:space="preserve">
<style type="text/css">
	.st0{fill:#434242;}
	.st1{fill:#635253;}
	.st2{fill:#726465;}
	.st3{fill:#A2894F;}
	.st4{fill:#494644;}
	.st5{fill:#A48A4F;}
	.st6{fill:#9E864E;}
	.st7{fill:#332E2E;}
	.st8{fill:#9A834F;}
	.st9{fill:#A1884E;}
	.st10{fill:#F1C55D;}
	.st11{fill:#F9E4B2;}
	.st12{fill:#FAE4B3;}
	.st13{fill:#897741;}
	.st14{fill:#8B7741;}
</style>
<g>
	<path class="st0" d="M595.84,272.69c0,106.87-0.01,213.73,0.05,320.6c0,2.13-0.48,2.6-2.6,2.6
		c-169.23-0.06-338.46-0.05-507.69-0.05c-1.15-0.96-1.19-2.28-1.2-3.62c-0.03-14.63-0.06-29.25,0.02-43.88
		c0.02-3.69,1.03-4.61,4.78-4.71c2.74-0.07,5.47,0.01,8.21-0.04c3.52-0.06,3.95-0.45,3.97-3.91c0.04-7.64,0.01-15.29,0.02-22.93
		c0-1.13-0.03-2.27,0.06-3.4c0.21-2.51,1.2-3.53,3.73-3.69c2.64-0.17,5.28-0.06,7.93-0.07c5.21-0.02,5.27-0.07,5.28-5.15
		c0.01-7.83-0.02-15.67,0.02-23.5c0.01-1.4-0.2-2.85,0.7-4.11c0.96-1.11,2.28-1.2,3.62-1.22c3.21-0.05,6.42-0.05,9.62-0.01
		c2.13,0.02,3.12-0.85,3.07-3.03c-0.06-2.64,0.02-5.28-0.02-7.93c-0.04-3.29-0.33-3.59-3.55-3.65c-2.92-0.05-5.85,0.01-8.78-0.03
		c-1.13-0.01-2.27,0.02-3.3-0.6c-0.31-0.18-0.55-0.43-0.75-0.72c-1.21-3.2-0.53-6.53-0.6-9.8c-0.12-5.86-0.04-5.86-5.97-5.86
		c-2.26,0-4.53,0.05-6.79-0.04c-3.19-0.13-4.2-1.09-4.24-4.33c-0.11-8.3-0.02-16.6-0.04-24.9c-0.01-4.61-0.14-4.72-4.79-4.75
		c-2.74-0.01-5.47,0.07-8.2-0.05c-2.85-0.13-3.84-1.13-3.96-4.02c-0.14-3.2,0.01-6.41-0.07-9.62c-0.07-2.83-0.49-3.23-3.36-3.3
		c-2.92-0.07-5.85,0.01-8.77-0.04c-1.13-0.02-2.28,0.06-3.31-0.53c-0.32-0.16-0.59-0.39-0.82-0.67c-1.3-2.69-0.64-5.57-0.69-8.36
		c-0.15-8.26,0.82-7.28-7.48-7.48c-2.93-0.07-6.06,0.94-8.78-1.09c-0.91-1.13-0.77-2.5-0.78-3.8c-0.03-14.53-0.04-29.07,0-43.6
		c0-1.31-0.13-2.67,0.81-3.79c0.94-0.96,2.16-1.06,3.4-1.08c2.36-0.04,4.72-0.02,7.08-0.02c5.69-0.01,5.7-0.01,5.7-5.57
		c0-12.46,0-24.93,0-37.39c0-1.13-0.01-2.27,0.02-3.4c0.11-3.63,0.98-4.53,4.54-4.63c2.83-0.08,5.66,0,8.5-0.04
		c3.53-0.05,3.93-0.4,3.94-3.92c0.04-13.6,0-27.19,0.03-40.79c0-1.59-0.26-3.22,0.52-4.73c0.16-0.33,0.39-0.61,0.68-0.84
		c2.79-1.33,5.76-0.65,8.65-0.7c7.83-0.13,7.13,0.58,7.14-7.26c0.02-12.38,0.02-24.76,0-37.13c-0.01-3.95-0.28-4.21-4.15-4.25
		c-2.83-0.03-5.67,0.01-8.5-0.03c-1.24-0.02-2.47-0.07-3.45-0.99c-1.21-1.47-0.88-3.23-0.88-4.9c-0.03-18.52-0.02-37.03-0.02-55.55
		c0-1.04,0.02-2.08-0.02-3.12c-0.11-2.93-0.54-3.37-3.57-3.43c-2.83-0.06-5.67,0.02-8.5-0.04c-3.96-0.08-4.87-0.92-4.89-4.86
		c-0.07-13.41-0.02-26.83-0.03-40.24c0-1.04-0.02-2.08-0.03-3.12c-0.01-1.88-0.95-2.73-2.8-2.76c-3.12-0.05-6.24,0.03-9.35-0.05
		c-3.8-0.09-4.76-0.97-4.79-4.67c-0.08-8.97-0.08-17.95,0-26.92c0.03-3.76,1-4.78,4.69-4.79c25.98-0.07,51.96-0.06,77.93,0
		c3.78,0.01,4.69,0.97,4.78,4.7c0.08,2.93-0.03,5.86,0.05,8.78c0.08,2.95,0.53,3.44,3.54,3.47c7.46,0.07,14.93,0.02,22.39,0.03
		c1.32,0,2.65-0.03,3.97,0.05c2.88,0.17,3.9,1.14,4.04,3.99c0.14,3.02,0.02,6.05,0.07,9.07c0.06,3.45,0.47,3.87,4,3.89
		c8.22,0.05,16.44-0.02,24.66,0.03c4.48,0.03,5.27,0.84,5.34,5.31c0.04,2.27,0,4.53,0.02,6.8c0.02,4.62,0.24,4.85,4.75,4.88
		c2.64,0.02,5.29-0.06,7.93,0.05c3.18,0.13,4.16,1.12,4.28,4.34c0.12,3.12,0.06,6.23,0.04,9.35c-0.01,2.25,0.95,3.35,3.23,3.26
		c0.75-0.03,1.51,0.01,2.27,0.01c46.48,0,92.95,0,139.43,0c5.7,0,5.7-0.01,5.71-5.61c0.01-2.46-0.07-4.91,0.05-7.37
		c0.15-2.86,1.14-3.85,4.04-3.98c3.11-0.14,6.23,0,9.35-0.07c3.01-0.08,3.46-0.52,3.54-3.47c0.08-3.02-0.04-6.05,0.06-9.07
		c0.11-3.35,1.08-4.3,4.49-4.41c3.02-0.1,6.05,0.02,9.07-0.06c2.82-0.08,3.31-0.55,3.39-3.32c0.09-3.12-0.05-6.24,0.07-9.35
		c0.12-3.21,1.08-4.22,4.32-4.27c8.41-0.11,16.81-0.02,25.22-0.05c4.1-0.02,4.38-0.31,4.43-4.31c0.04-3.02-0.07-6.05,0.08-9.07
		c0.11-2.09,1.17-3.41,3.31-3.52c4.15-0.2,8.31-0.14,12.47-0.03c0.9,0.02,1.64,0.38,2.25,1.03c1.14,0.94,1.31,2.21,1.31,3.58
		c0.02,9.07,0.06,18.14-0.02,27.2c-0.03,3.51-1.05,4.45-4.65,4.53c-3.02,0.07-6.05,0.06-9.07,0.02c-2.26-0.03-3.28,0.91-3.26,3.21
		c0.03,3.12,0.07,6.24-0.03,9.35c-0.11,3.37-1.08,4.32-4.48,4.42c-2.93,0.09-5.86-0.01-8.78,0.05c-3.22,0.06-3.62,0.45-3.69,3.59
		c-0.06,3.02,0.05,6.05-0.06,9.07c-0.12,3.19-1.11,4.18-4.32,4.3c-2.74,0.1-5.48,0.02-8.22,0.04c-4.12,0.03-4.38,0.29-4.42,4.3
		c-0.03,2.83,0.07,5.67-0.05,8.5c-0.13,3.03-1.13,4.03-4.17,4.15c-3.11,0.13-6.23-0.01-9.35,0.07c-2.87,0.08-3.38,0.51-3.41,3.29
		c-0.07,8.31-0.07,16.63,0,24.94c0.02,2.83,0.5,3.25,3.35,3.33c2.74,0.07,5.48,0,8.22,0.03c4.62,0.06,5.34,0.8,5.4,5.52
		c0.03,2.64-0.03,5.29,0.03,7.93c0.07,3.06,0.45,3.46,3.45,3.53c3.12,0.07,6.24-0.05,9.35,0.06c3.07,0.11,4.03,1.07,4.15,4.14
		c0.12,3.21,0.08,6.42,0.04,9.63c-0.03,2.3,1,3.23,3.26,3.19c3.02-0.04,6.05-0.03,9.07,0.01c1.32,0.02,2.66-0.01,3.75,0.96
		c0.93,0.99,0.89,2.24,0.92,3.47c0.06,3.02-0.03,6.05,0.05,9.07c0.07,2.94,0.54,3.4,3.54,3.47c3.02,0.08,6.05-0.05,9.07,0.06
		c3.23,0.12,4.22,1.09,4.34,4.28c0.11,3.12,0.07,6.24,0.04,9.35c-0.02,2.21,0.84,3.33,3.16,3.33c8.41,0,16.82-0.01,25.22,0
		c2.29,0,3.28-1.04,3.2-3.28c-0.04-1.13,0.01-2.27,0.01-3.4c0-46.58,0-93.15,0-139.73c0-1.79-0.02-3.59,0.16-5.38
		c-0.34-9.42-0.07-18.83-0.16-28.25c-0.04-4.43-0.19-4.6-4.64-4.61c-8.01-0.02-16.01,0.01-24.02-0.02c-1.5-0.01-3.06,0.13-4.17-1.22
		c-1.73-2.61-1.72-14.42,0.02-16.99c17.01,0,34.02,0,51.02,0c1.35,1.12,1.19,2.69,1.2,4.19c0.04,8.12-0.01,16.24,0.02,24.36
		c0.02,3.89,0.34,4.19,4.21,4.24c2.83,0.04,5.67-0.06,8.5,0.05c3.17,0.13,4.13,1.13,4.26,4.35c0.07,1.6,0.03,3.21,0.03,4.81
		c0,62.88,0,125.77,0,188.65c0,6.22,0,6.23,6.22,6.23c11.7,0,10.78-0.85,10.79,10.93c0,0.94,0.04,1.89,0.01,2.83
		c-0.07,2.26,0.99,3.26,3.25,3.24c3.02-0.02,6.04-0.05,9.06,0.03c3.57,0.1,4.54,1.04,4.65,4.55c0.09,2.93-0.01,5.85,0.05,8.78
		c0.07,3.14,0.5,3.6,3.67,3.63c8.31,0.06,16.62,0,24.93,0.04C593.15,271.5,594.72,271.35,595.84,272.69z"/>
	<path class="st1" d="M459.71,17.54c10.35,0.01,20.71,0.08,31.06-0.01c2.32-0.02,3.1,0.67,3.07,3.04
		c-0.12,10.35-0.07,20.71-0.09,31.06c-0.88,1.06-2.1,1.14-3.35,1.16c-2.83,0.04-5.66-0.02-8.5,0.03c-3.48,0.05-3.88,0.43-3.89,3.97
		c-0.04,13.03-0.01,26.06-0.02,39.09c0,7.95,0,7.95-8.07,7.96c-1.6,0-3.21-0.01-4.81,0.01c-3.82,0.05-4.1,0.32-4.11,4.3
		c-0.03,7.46-0.01,14.92-0.01,22.38c0,1.13,0.03,2.27-0.05,3.4c-0.18,2.74-1.11,3.74-3.82,3.87c-3.21,0.16-6.42,0.01-9.63,0.08
		c-3,0.07-3.46,0.48-3.48,3.48c-0.07,8.4,0.01,16.81-0.05,25.21c-0.01,1.46,0.31,3.09-1.23,4.13c-4.53-0.01-9.07-0.19-13.59,0.03
		c-2.84,0.14-3.57-0.92-3.43-3.57c0.2-3.67-0.02-7.36,0.07-11.04c0.05-1.83-0.63-2.52-2.47-2.48c-3.77,0.09-7.56-0.14-11.32,0.08
		c-2.74,0.16-3.4-0.92-3.28-3.43c0.17-3.77-0.01-7.55,0.06-11.33c0.03-1.7-0.62-2.36-2.33-2.33c-3.96,0.07-7.93-0.06-11.89,0.05
		c-2.02,0.06-2.87-0.51-2.85-2.69c0.09-9.53,0.09-19.07,0-28.6c-0.02-2.08,0.63-2.86,2.75-2.79c3.77,0.13,7.56-0.09,11.33,0.08
		c2.43,0.11,3.09-0.83,3-3.12c-0.15-3.77,0.04-7.55-0.07-11.33c-0.06-1.95,0.62-2.7,2.61-2.64c3.77,0.11,7.56-0.12,11.33,0.08
		c2.58,0.14,3.26-0.84,3.15-3.27c-0.17-3.77,0.02-7.55-0.07-11.33c-0.04-1.82,0.61-2.54,2.46-2.49c3.77,0.09,7.56-0.14,11.32,0.08
		c2.71,0.16,3.42-0.89,3.29-3.41c-0.18-3.67,0.03-7.36-0.08-11.04c-0.06-1.95,0.62-2.7,2.61-2.64c3.77,0.11,7.56-0.07,11.33,0.07
		c2.25,0.08,3.18-0.51,3.15-2.97c-0.13-10.38-0.07-20.77-0.09-31.15C459.74,17.51,459.71,17.54,459.71,17.54z"/>
	<path class="st2" d="M170.69,136.67c-0.01,4.63-0.17,9.26,0.02,13.89c0.11,2.59-0.84,3.25-3.26,3.13
		c-3.68-0.18-7.37,0.05-11.05-0.08c-2.07-0.07-2.87,0.56-2.8,2.72c0.14,3.96-0.03,7.94,0.07,11.9c0.05,1.85-0.63,2.5-2.47,2.45
		c-3.87-0.1-7.75,0.1-11.62-0.08c-2.44-0.11-3.08,0.82-2.99,3.1c0.16,3.77-0.04,7.56,0.07,11.33c0.06,1.93-0.54,2.72-2.57,2.65
		c-3.87-0.13-7.75-0.15-11.62,0.01c-2.25,0.09-2.91-0.68-2.9-2.91c0.08-14.83,0.04-29.67,0.04-44.5c0-3.65-0.01-3.66-3.76-3.66
		c-3.21,0-6.44-0.18-9.63,0.05c-2.81,0.2-3.72-0.62-3.69-3.57c0.16-14.64-0.01-29.29,0.14-43.93c0.03-2.87-0.73-3.83-3.63-3.63
		c-3.57,0.25-7.18-0.05-10.76,0.1c-2.17,0.09-2.72-0.74-2.71-2.8c0.07-15.12,0.07-30.23,0-45.35c-0.01-2.14,0.5-3.05,2.84-2.96
		c4.72,0.18,9.45,0.08,14.17,0.09c1.39,1.1,1.22,2.67,1.23,4.16c0.04,8.11-0.01,16.23,0.02,24.34c0.02,3.92,0.31,4.23,4.16,4.25
		c8.21,0.04,16.41-0.03,24.62,0.03c4.35,0.03,5.14,0.84,5.21,5.1c0.05,2.92,0.04,5.85,0.02,8.77c-0.02,2.12,0.9,3.11,3.05,3.1
		c3.21,0,6.42-0.07,9.62,0.05c3.21,0.12,4.24,1.09,4.29,4.31c0.12,8.39,0.02,16.79,0.05,25.19c0.02,4.21,0.26,4.44,4.53,4.48
		c2.74,0.02,5.47-0.06,8.21,0.05c3.06,0.13,4.11,1.12,4.21,4.1c0.13,3.68,0.06,7.36,0.03,11.04
		C171.82,134.77,171.58,135.83,170.69,136.67z"/>
	<path class="st2" d="M442.73,170.68c0.01-10.29,0.1-20.58-0.01-30.87c-0.03-2.46,0.65-3.37,3.19-3.23
		c3.67,0.2,7.37-0.07,11.04,0.09c2.32,0.11,2.89-0.81,2.87-2.97c-0.09-9.34,0.02-18.69-0.08-28.04c-0.03-2.3,0.62-3.21,3.02-3.1
		c3.67,0.17,7.37-0.08,11.04,0.09c2.4,0.11,3.04-0.79,3.03-3.1c-0.08-14.73-0.04-29.45-0.04-44.18c0-3.78,0.01-3.79,3.66-3.79
		c4.44,0,8.87,0.02,13.31,0.03c0.01,47.76,0.03,95.52,0.04,143.28c0,2.45-0.06,4.91,0.02,7.36c0.05,1.6-0.38,2.43-2.2,2.42
		c-9.91-0.06-19.82-0.05-29.73-0.01c-1.61,0.01-2.14-0.67-2.12-2.21c0.06-3.77-0.2-7.57,0.08-11.32c0.23-3.03-0.95-3.72-3.71-3.55
		c-3.48,0.21-6.99-0.05-10.47,0.09c-2.18,0.09-3.02-0.55-2.94-2.86C442.87,180.12,442.75,175.4,442.73,170.68z"/>
	<path class="st1" d="M170.69,136.67c-0.01-4.81-0.09-9.62-0.01-14.43c0.03-1.95-0.62-2.7-2.61-2.64c-3.87,0.11-7.74-0.09-11.6,0.08
		c-2.31,0.1-2.89-0.8-2.87-2.96c0.09-9.25-0.04-18.49,0.09-27.74c0.03-2.52-0.58-3.57-3.29-3.41c-3.76,0.22-7.55-0.01-11.32,0.08
		c-1.84,0.04-2.52-0.65-2.47-2.48c0.09-3.3,0.03-6.6,0.02-9.91c-0.02-5.17,0.43-4.63-4.78-4.64c-8.68-0.02-17.36-0.08-26.04,0.05
		c-2.44,0.04-3.28-0.63-3.25-3.17c0.12-10.28,0.03-20.57,0.02-30.85c4.81-0.01,9.63,0.04,14.44-0.07c1.96-0.05,2.69,0.64,2.63,2.62
		c-0.11,3.49-0.03,6.99-0.03,10.48c0,3.94,0,3.94,4.08,3.94c8.97,0,17.94,0.07,26.91-0.04c2.33-0.03,3.19,0.67,3.08,3.05
		c-0.17,3.58,0.12,7.18-0.1,10.76c-0.17,2.72,0.89,3.41,3.42,3.29c3.77-0.18,7.55,0.01,11.33-0.07c1.69-0.03,2.37,0.6,2.34,2.32
		c-0.07,3.78,0.15,7.56-0.08,11.33c-0.17,2.83,0.91,3.58,3.56,3.43c3.67-0.2,7.36,0.02,11.04-0.08c1.83-0.04,2.53,0.62,2.48,2.47
		c-0.09,3.68,0.17,7.38-0.09,11.04c-0.21,2.99,0.93,3.74,3.71,3.58c3.67-0.22,7.36,0,11.04-0.07c1.7-0.03,2.36,0.62,2.33,2.33
		c-0.07,4.15-0.07,8.31,0,12.46c0.03,1.77-0.76,2.28-2.4,2.26c-4.06-0.06-8.12,0.04-12.18-0.04c-1.84-0.04-2.53,0.64-2.48,2.48
		c0.09,3.4,0.03,6.8,0.02,10.2c0,4.36,0,4.35-4.22,4.36C179.18,136.64,174.93,136.65,170.69,136.67z"/>
	<path class="st3" d="M221.64,221.76c4.91-0.03,9.81,0.01,14.71-0.12c1.94-0.05,2.39,0.74,2.35,2.5c-0.1,4.06,0.05,8.12-0.06,12.17
		c-0.05,1.88,0.63,2.45,2.45,2.4c3.87-0.11,7.74,0.1,11.6-0.08c2.33-0.11,3.06,0.59,3.04,2.98c-0.11,13.21-0.05,26.42-0.05,39.63
		c0,13.21-0.04,26.42,0.04,39.63c0.01,2.18-0.54,2.98-2.83,2.9c-4.71-0.16-9.43-0.03-14.15-0.02c-0.51,0.41-0.98,0.98-1.67,0.99
		c-5.05,0.09-10.11,0.73-15.13-0.39c-0.33-0.18-0.61-0.42-0.82-0.73c-1.2-2.81-0.49-5.76-0.64-8.65c-0.1-1.79-0.07-3.58,0.03-5.37
		c0.16-2.87,1.15-3.9,3.99-4.03c3.2-0.15,6.41,0.01,9.61-0.08c2.78-0.08,3.32-0.57,3.33-3.36c0.06-13.95,0.06-27.9,0-41.85
		c-0.01-2.79-0.53-3.26-3.34-3.34c-3.11-0.09-6.22,0.05-9.33-0.07c-3.19-0.12-4.21-1.11-4.26-4.33c-0.07-4.62-0.19-9.24,0.11-13.85
		c-0.29-4.62-0.13-9.25-0.12-13.88C220.5,223.65,220.55,222.5,221.64,221.76z"/>
	<path class="st4" d="M51.69,323.72c-0.03-22.09-0.05-44.17-0.13-66.25c-0.01-1.61,0.61-1.83,1.98-1.8
		c4.15,0.07,8.31-0.09,12.46,0.08c2.06,0.08,2.7-0.39,2.67-2.58c-0.14-9.72-0.02-19.44-0.1-29.17c-0.02-1.79,0.38-2.42,2.29-2.37
		c4.9,0.13,9.81,0.01,14.72,0c0.01,16.06-0.01,32.11,0.07,48.17c0.01,2.2-0.62,3.05-2.9,2.95c-3.49-0.16-6.99-0.05-10.48-0.04
		c-3.66,0.01-3.66,0.01-3.66,3.8c0,14.64-0.06,29.28,0.05,43.92c0.02,2.62-0.76,3.47-3.37,3.36
		C60.76,323.58,56.22,323.72,51.69,323.72z"/>
	<path class="st4" d="M119.59,459.83c-10.47-0.02-20.94-0.1-31.41,0c-2.12,0.02-2.65-0.5-2.62-2.62c0.13-9.72,0.01-19.43,0.1-29.15
		c0.02-1.83-0.44-2.41-2.32-2.34c-4.15,0.15-8.3-0.05-12.45,0.09c-1.86,0.06-2.34-0.48-2.33-2.33c0.07-10.57,0.01-21.13-0.01-31.7
		c4.81-0.01,9.63,0.04,14.44-0.06c1.95-0.04,2.71,0.62,2.65,2.61c-0.11,3.68,0.14,7.37-0.09,11.04c-0.18,2.84,0.92,3.58,3.57,3.44
		c3.58-0.2,7.17,0.04,10.76-0.08c2.11-0.08,2.79,0.7,2.77,2.78c-0.08,9.16-0.04,18.31-0.03,27.47c0,3.79,0.01,3.79,3.67,3.8
		c3.59,0.01,7.18,0.08,10.76-0.03c1.99-0.06,2.65,0.7,2.61,2.65C119.55,450.2,119.6,455.02,119.59,459.83z"/>
	<path class="st5" d="M323.81,306.7c-0.06-11.33-0.12-22.67-0.18-34c-0.78-0.77-1.08-1.72-1.09-2.8c-0.07-9.39-0.06-18.78,0-28.17
		c0.01-1.18,0.26-2.23,1.22-3.02l-0.02,0.02c0.85-1.06,2.02-1.23,3.27-1.23c4.57,0.01,9.14-0.17,13.7,0.12
		c4.7-0.28,9.39-0.13,14.09-0.12c1.14,0,2.27,0.07,3.17,0.92c0.48,0.6,0.84,1.27,0.87,2.05c0.17,4.52,0.18,9.03-0.01,13.55
		c-0.03,0.68-0.32,1.27-0.73,1.8c-0.95,0.95-2.16,1.04-3.41,1.06c-2.45,0.04-4.9,0.02-7.35,0.02c-5.39,0.01-5.4,0.01-5.41,5.28
		c-0.01,13.29,0.01,26.58-0.02,39.87c0,1.67,0.29,3.43-0.98,4.86c-0.73,0.66-1.61,0.92-2.58,0.95c-3.94,0.1-7.87,0.08-11.81,0.01
		C325.46,307.86,324.51,307.58,323.81,306.7z"/>
	<path class="st6" d="M425.81,238.64c4.82,0.01,9.63,0.08,14.45,0.01c1.72-0.02,2.55,0.33,2.55,2.32c-0.05,26.82-0.05,53.64,0,80.46
		c0,1.98-0.83,2.34-2.54,2.32c-4.81-0.07-9.63,0-14.45,0.02c-0.15-0.11-0.3-0.22-0.45-0.32c-0.76-0.83-0.77-1.87-0.77-2.89
		c0-4.65-0.17-9.31,0.12-13.96c-0.26-16.91-0.28-33.82,0-50.74c-0.27-4.66-0.13-9.32-0.12-13.99c0-1.03,0.01-2.07,0.77-2.9
		C425.5,238.85,425.66,238.74,425.81,238.64z"/>
	<path class="st3" d="M136.72,306.7c-0.03-21.91-0.04-43.82-0.12-65.73c-0.01-1.97,0.79-2.35,2.53-2.33c4.81,0.08,9.63,0.01,14.45,0
		c0.29-0.24,0.57-0.64,0.89-0.68c5.48-0.61,10.97-1.27,16.4,0.42c0.5,0.59,0.86,1.27,0.89,2.04c0.17,4.62,0.22,9.24-0.04,13.86
		c-0.03,0.57-0.33,1.08-0.7,1.53c-0.95,0.95-2.16,1.04-3.4,1.06c-2.45,0.04-4.9,0.02-7.35,0.02c-5.4,0.01-5.4,0.01-5.41,5.28
		c-0.01,13.29,0.01,26.58-0.02,39.87c0,1.67,0.29,3.43-0.98,4.86c-0.73,0.66-1.61,0.92-2.58,0.95c-3.94,0.1-7.87,0.08-11.81,0.01
		C138.37,307.86,137.42,307.58,136.72,306.7z"/>
	<path class="st6" d="M425.81,323.76c-0.02,4.82-0.09,9.63-0.02,14.45c0.02,1.72-0.33,2.55-2.32,2.55
		c-26.82-0.05-53.64-0.05-80.46,0c-1.98,0-2.34-0.83-2.32-2.54c0.07-4.81,0-9.63-0.02-14.45c0.11-0.15,0.22-0.3,0.32-0.45
		c0.83-0.76,1.87-0.77,2.89-0.77c4.66,0,9.31-0.17,13.97,0.12c15.34-0.36,30.68-0.06,46.03-0.16c1.6-0.01,3.2,0.01,4.8,0.16
		c4.57-0.28,9.15-0.12,13.72-0.13c1.24,0,2.44,0.11,3.32,1.14L425.81,323.76z"/>
	<path class="st7" d="M289.71,374.74c-5.67,0-11.35,0-17.02,0l0.01,0.01c0-4.81-0.07-9.62,0.03-14.43c0.04-1.98-0.68-2.66-2.64-2.61
		c-3.86,0.1-7.74-0.05-11.6,0.06c-2.02,0.06-2.91-0.53-2.84-2.7c0.13-3.96,0.1-7.92,0.01-11.88c-0.04-1.83,0.64-2.48,2.47-2.48
		c15.38,0.05,30.75,0.05,46.13,0c1.83-0.01,2.51,0.65,2.47,2.48c-0.09,4.05-0.09,8.11,0,12.17c0.04,1.9-0.77,2.44-2.54,2.41
		c-3.96-0.08-7.92,0.05-11.88-0.05c-1.95-0.05-2.68,0.63-2.64,2.61c0.1,4.81,0.03,9.62,0.03,14.43L289.71,374.74z"/>
	<path class="st8" d="M170.71,238.71c-5.71-0.02-11.43-0.04-17.14-0.06c0.02-4.91,0.1-9.82,0.04-14.73c-0.02-1.74,0.59-2.3,2.3-2.28
		c4.91,0.06,9.82-0.03,14.73-0.06c1-1.09,2.32-1.11,3.65-1.11c14.58-0.03,29.17-0.03,43.75,0c1.33,0,2.65,0.05,3.66,1.1
		c0,0-0.07,0.19-0.07,0.19c0,5.66,0.01,11.32,0.01,16.97c-0.82,0.91-1.88,1.13-3.04,1.13c-4.66-0.01-9.32,0.16-13.98-0.12
		c-10.29,0.32-20.57,0.11-30.86,0.12C172.6,239.86,171.51,239.68,170.71,238.71z"/>
	<path class="st4" d="M85.55,221.64c0.02-15.96,0.03-31.92,0.06-47.88c0-1.04,0.06-2.07,0.09-3.11c4.81,0,9.61,0.05,14.41-0.02
		c1.79-0.03,2.53,0.56,2.52,2.43c-0.05,15.36-0.05,30.71,0.01,46.07c0.01,2.02-0.77,2.61-2.68,2.57
		C95.16,221.6,90.36,221.65,85.55,221.64z"/>
	<path class="st4" d="M221.71,221.57c-17.02,0-34.05,0.01-51.07,0.01c0-4.81,0.06-9.63-0.02-14.44c-0.03-1.81,0.6-2.51,2.46-2.51
		c15.38,0.05,30.76,0.05,46.15,0c1.84-0.01,2.49,0.67,2.47,2.49C221.63,211.94,221.69,216.76,221.71,221.57z"/>
	<path class="st8" d="M357.8,238.71c-5.71-0.02-11.43-0.04-17.14-0.06c-1.73-2.69-1.64-14.5,0.13-16.95
		c16.99,0.02,33.98,0.04,50.97,0.06c0.42,0.39,0.92,0.8,0.95,1.36c0.2,5.12,0.82,10.25-0.35,15.34c-0.19,0.34-0.45,0.6-0.78,0.8
		c-0.75,0.44-1.58,0.59-2.44,0.59c-9.42,0.07-18.85,0.05-28.27,0.01C359.69,239.86,358.6,239.67,357.8,238.71z"/>
	<path class="st3" d="M221.66,340.63c-17,0-34,0-51,0c-0.77-0.64-1.14-1.46-1.16-2.46c-0.09-4.12-0.12-8.25,0.02-12.37
		c0.03-0.87,0.35-1.64,0.93-2.3c1.07-0.98,2.4-0.98,3.73-0.98c14.61-0.04,29.21-0.03,43.82,0c1.33,0,2.67,0,3.63,1.15l0.09,0.09
		C223.43,326.38,223.39,338.15,221.66,340.63z"/>
	<path class="st7" d="M527.81,340.9c0,4.63-0.08,9.25,0.04,13.88c0.05,2.13-0.49,3.1-2.84,3c-3.96-0.17-7.93-0.1-11.89-0.03
		c-1.71,0.03-2.33-0.64-2.33-2.34c0.04-9.82,0.04-19.64,0.01-29.46c0-1.51,0.48-2.27,2.11-2.25c4.25,0.05,8.5,0.06,12.74-0.01
		c1.84-0.03,2.2,0.91,2.18,2.48C527.78,331.08,527.81,335.99,527.81,340.9z"/>
	<path class="st4" d="M323.76,238.7c-0.04,11.33-0.09,22.66-0.13,34c-4.71,0-9.42-0.08-14.12,0.03c-2.02,0.04-2.85-0.55-2.83-2.7
		c0.09-9.6,0.08-19.2,0.01-28.8c-0.02-2.02,0.78-2.6,2.68-2.57C314.16,238.74,318.96,238.69,323.76,238.7z"/>
	<path class="st7" d="M272.69,374.74c0,4.81-0.06,9.61,0.04,14.42c0.04,1.96-0.65,2.64-2.62,2.63c-9.61-0.07-19.23-0.07-28.84,0
		c-1.96,0.01-2.68-0.66-2.62-2.62c0.11-3.86,0.15-7.73-0.01-11.59c-0.1-2.31,0.81-2.88,2.97-2.86c10.37,0.09,20.73,0.04,31.1,0.04
		C272.7,374.75,272.69,374.74,272.69,374.74z"/>
	<path class="st9" d="M391.73,238.55c0.01-5.6,0.01-11.2,0.02-16.8c10.57-0.02,21.15-0.01,31.72-0.11c2-0.02,2.33,0.85,2.31,2.55
		c-0.06,4.81,0.01,9.63,0.03,14.45c0,0-0.1,0.08-0.1,0.08c-0.8,0.94-1.86,1.14-3.02,1.14c-4.65,0-9.3,0.17-13.95-0.12
		c-4.6,0.28-9.2,0.14-13.8,0.11C393.72,239.85,392.45,239.85,391.73,238.55z"/>
	<path class="st7" d="M289.7,374.75c10.27,0,20.55,0.06,30.82-0.05c2.42-0.03,3.39,0.59,3.26,3.16c-0.2,3.85-0.1,7.73-0.03,11.59
		c0.03,1.7-0.63,2.33-2.33,2.33c-9.8-0.04-19.6-0.04-29.4,0c-1.7,0.01-2.35-0.63-2.32-2.33c0.06-4.9,0.02-9.8,0.02-14.7
		C289.71,374.74,289.7,374.75,289.7,374.75z"/>
	<path class="st7" d="M493.8,408.76c0-10.27,0.06-20.55-0.05-30.82c-0.03-2.42,0.59-3.39,3.16-3.26c3.85,0.2,7.73,0.1,11.59,0.03
		c1.7-0.03,2.33,0.63,2.33,2.33c-0.04,9.8-0.04,19.6,0,29.4c0.01,1.7-0.63,2.35-2.33,2.32c-4.9-0.06-9.8-0.02-14.7-0.02
		L493.8,408.76z"/>
	<path class="st7" d="M476.79,442.78c0-10.28,0.07-20.57-0.06-30.85c-0.03-2.47,0.68-3.32,3.2-3.22c4.62,0.18,9.24,0.05,13.87,0.06
		c0,0-0.01-0.01-0.01-0.01c0,10.28-0.07,20.57,0.06,30.85c0.03,2.47-0.68,3.32-3.2,3.22c-4.62-0.18-9.24-0.05-13.87-0.06
		L476.79,442.78z"/>
	<path class="st7" d="M408.76,493.8c0-4.72,0.1-9.44-0.05-14.15c-0.07-2.26,0.72-2.92,2.93-2.9c10.38,0.09,20.75,0.04,31.13,0.05
		l-0.01-0.01c0,4.72-0.1,9.44,0.05,14.15c0.07,2.26-0.72,2.92-2.93,2.9c-10.38-0.09-20.75-0.04-31.13-0.05L408.76,493.8z"/>
	<path class="st4" d="M340.79,221.69c-0.04,5.65-0.08,11.3-0.13,16.95c-5.64,0.02-11.28,0.05-16.92,0.07
		c-0.01-4.87,0.04-9.75-0.05-14.62c-0.03-1.83,0.67-2.49,2.48-2.46C331.04,221.73,335.91,221.69,340.79,221.69z"/>
	<path class="st8" d="M136.72,306.7c5.65-0.01,11.3-0.01,16.95-0.02c0.14,0.11,0.28,0.23,0.42,0.34c0.65,0.77,0.7,1.7,0.71,2.64
		c0.05,3.73,0.05,7.45,0,11.18c-0.01,0.94-0.09,1.87-0.77,2.62c-0.15,0.1-0.3,0.21-0.45,0.31c-4.81-0.02-9.63-0.09-14.44-0.02
		c-1.72,0.02-2.6-0.33-2.55-2.32C136.74,316.52,136.69,311.61,136.72,306.7z"/>
	<path class="st6" d="M323.81,306.7c5.65-0.01,11.3-0.01,16.95-0.02c0.14,0.12,0.29,0.23,0.43,0.35c0.73,0.86,0.7,1.91,0.71,2.93
		c0.05,3.46,0.03,6.92,0.01,10.38c-0.01,1.24-0.11,2.44-1.14,3.33c0,0-0.09,0.09-0.09,0.09c-4.82-0.02-9.63-0.09-14.45-0.02
		c-1.72,0.02-2.6-0.33-2.55-2.32C323.82,316.52,323.78,311.61,323.81,306.7z"/>
	<path class="st8" d="M170.67,323.68c-0.01,5.65-0.01,11.3-0.02,16.95c-4.91,0.03-9.82-0.02-14.72,0.12
		c-1.99,0.06-2.34-0.83-2.32-2.55c0.06-4.81-0.01-9.63-0.02-14.44c0,0,0.1-0.1,0.1-0.1c0.48-0.45,0.96-0.96,1.65-0.99
		c4.76-0.19,9.52-0.44,14.27,0.15c0.28,0.04,0.49,0.27,0.72,0.42C170.44,323.39,170.56,323.53,170.67,323.68z"/>
	<path class="st8" d="M221.66,340.63c0.02-5.63,0.03-11.25,0.05-16.87c5.68,0,11.35-0.01,17.03-0.02
		c-0.02,4.82-0.13,9.64-0.03,14.45c0.04,2.01-0.65,2.62-2.61,2.56C231.3,340.62,226.48,340.66,221.66,340.63z"/>
	<path class="st4" d="M68.57,391.8c-5-0.02-10-0.07-14.99-0.03c-1.31,0.01-2.06-0.09-2.02-1.76c0.14-5.09,0.1-10.18,0.13-15.27
		c4.61,0,9.22,0.1,13.83-0.04c2.26-0.07,3.22,0.56,3.13,2.99C68.47,382.39,68.58,387.1,68.57,391.8z"/>
	<path class="st7" d="M476.78,442.77c0,4.81-0.06,9.62,0.04,14.42c0.04,1.97-0.66,2.66-2.62,2.62c-4.81-0.1-9.61-0.03-14.42-0.04
		l0.01,0.01c0-4.81,0.06-9.62-0.04-14.42c-0.04-1.97,0.66-2.66,2.62-2.62c4.81,0.1,9.61,0.03,14.42,0.04
		C476.79,442.78,476.78,442.77,476.78,442.77z"/>
	<path class="st4" d="M119.72,476.79c-0.05-5.66-0.1-11.32-0.15-16.98c4.7-0.01,9.41,0.09,14.1-0.08c2.42-0.09,3.09,0.85,3,3.12
		c-0.15,3.57-0.21,7.16,0.02,10.71c0.17,2.74-0.95,3.35-3.43,3.27C128.75,476.67,124.23,476.79,119.72,476.79z"/>
	<path class="st7" d="M442.78,476.79c0-4.81,0.06-9.62-0.04-14.42c-0.04-1.97,0.66-2.66,2.62-2.62c4.81,0.1,9.61,0.03,14.42,0.04
		c0,0-0.01-0.01-0.01-0.01c0,4.81-0.06,9.62,0.04,14.42c0.04,1.97-0.66,2.66-2.62,2.62c-4.81-0.1-9.61-0.03-14.42-0.04
		C442.77,476.78,442.78,476.79,442.78,476.79z"/>
	<path class="st7" d="M408.75,493.79c0,4.8-0.06,9.6,0.03,14.4c0.04,1.93-0.6,2.7-2.59,2.65c-4.04-0.11-8.09-0.08-12.14-0.01
		c-1.7,0.03-2.35-0.63-2.32-2.32c0.07-4.14,0.07-8.28,0-12.42c-0.03-1.72,0.68-2.32,2.35-2.3c4.89,0.06,9.79,0.02,14.68,0.02
		C408.76,493.8,408.75,493.79,408.75,493.79z"/>
	<path class="st10" d="M221.62,323.67c-16.98,0-33.97,0.01-50.95,0.01c0,0,0.01,0.01,0.01,0.01c-1.16-0.94-1.21-2.25-1.23-3.59
		c-0.03-3.1-0.03-6.2-0.02-9.3c0.01-2.01-0.88-2.9-2.89-2.89c-3.1,0.01-6.2,0.02-9.3-0.02c-1.34-0.01-2.65-0.06-3.59-1.23
		c0,0,0.01,0.01,0.01,0.01c-0.01-16.13,0.02-32.26-0.08-48.39c-0.01-2.23,0.83-2.68,2.83-2.64c4.71,0.11,9.43,0.02,14.15,0.01
		c1.15,0.68,1.21,1.82,1.25,2.96c0.07,2.26,0.03,4.52,0.04,6.78c0.01,6.08,0,6.08,6.23,6.09c2.17,0,4.33-0.02,6.5,0.02
		c1.13,0.02,2.27,0.03,3.21,0.82c1.03,1.03,1.03,2.36,1.04,3.68c0.04,3.2,0.03,6.39,0.02,9.59c-0.01,2,0.86,2.92,2.89,2.89
		c2.91-0.03,5.83-0.05,8.74,0.01c2.21,0.04,2.98-1,2.98-3.09c0.01-4.32-0.16-8.65,0.14-12.97c-0.33-10.31-0.13-20.62-0.12-30.93
		c0-1.08,0.28-2.04,1.15-2.75c5.67-0.01,11.34-0.02,17.01-0.03c0.01,4.72,0.13,9.44-0.03,14.16c-0.08,2.31,0.75,2.92,2.93,2.84
		c3.86-0.15,7.74,0.02,11.61-0.07c1.72-0.04,2.57,0.34,2.56,2.32c-0.06,15.48-0.05,30.96-0.01,46.44c0,1.69-0.53,2.35-2.27,2.31
		c-4.06-0.09-8.12,0.05-12.18-0.06c-1.94-0.05-2.67,0.54-2.62,2.55C221.74,314.04,221.64,318.86,221.62,323.67z"/>
	<path class="st10" d="M391.73,238.55c5.65,0.05,11.31,0.1,16.96,0.15c1.17,0.93,1.24,2.24,1.25,3.58c0.03,3.1,0.03,6.2,0.02,9.3
		c-0.01,2.01,0.88,2.9,2.9,2.9c3.1-0.01,6.2-0.02,9.3,0.02c1.34,0.01,2.65,0.08,3.57,1.25c0,16.97,0,33.93,0,50.9
		c-0.93,1.18-2.23,1.24-3.57,1.25c-3.1,0.03-6.2,0.03-9.3,0.02c-2.01-0.01-2.9,0.89-2.9,2.9c0.01,3.1,0.02,6.2-0.02,9.3
		c-0.01,1.34-0.08,2.65-1.25,3.57c-16.97,0-33.93,0-50.9,0c-1.18-0.93-1.24-2.23-1.25-3.57c-0.03-3.1-0.03-6.2-0.02-9.3
		c0.01-2.01-0.88-2.91-2.89-2.9c-3.1,0.01-6.2,0.02-9.3-0.02c-1.34-0.01-2.65-0.06-3.59-1.23c0,0,0.01,0.01,0.01,0.01
		c-0.01-16.13,0.02-32.26-0.08-48.39c-0.01-2.23,0.83-2.69,2.83-2.64c4.71,0.11,9.43,0.02,14.15,0.01c1.15,0.68,1.21,1.82,1.25,2.96
		c0.07,2.26,0.03,4.52,0.04,6.78c0.01,6.08,0,6.08,6.23,6.09c2.17,0,4.33-0.02,6.5,0.02c1.13,0.02,2.27,0.03,3.21,0.82
		c1.03,1.03,1.03,2.36,1.04,3.68c0.04,3.2,0.03,6.39,0.02,9.59c-0.01,2,0.86,2.92,2.89,2.89c2.91-0.03,5.83-0.05,8.74,0.01
		c2.21,0.04,2.98-1,2.98-3.09c0.01-4.32-0.16-8.65,0.14-12.97c-0.35-10.22-0.11-20.44-0.13-30.66c0-1.16,0.19-2.25,1.18-3.02
		L391.73,238.55z"/>
	<path class="st11" d="M374.77,272.77c-4.88-0.02-9.76-0.11-14.63-0.04c-1.83,0.03-2.47-0.6-2.44-2.44
		c0.07-4.88-0.02-9.75-0.05-14.63c0.05-5.65,0.1-11.3,0.14-16.95c11.32,0.02,22.63,0.04,33.95,0.06
		c-0.02,11.31-0.03,22.63-0.05,33.94c-0.31,0.21,0.12-0.01-0.2,0.19C389.05,274.43,377.22,274.33,374.77,272.77z"/>
	<path class="st5" d="M408.69,323.69c0.02-4.9,0.1-9.81,0.04-14.71c-0.02-1.72,0.58-2.32,2.3-2.3c4.9,0.06,9.81-0.01,14.71-0.04
		c-0.01,5.68-0.01,11.35-0.02,17.03C420.04,323.68,414.37,323.68,408.69,323.69z"/>
	<path class="st5" d="M425.74,255.75c-4.91-0.02-9.81-0.1-14.71-0.04c-1.72,0.02-2.32-0.58-2.29-2.3c0.06-4.9-0.01-9.81-0.03-14.72
		c5.67,0,11.34,0.01,17.02,0.01C425.72,244.39,425.73,250.07,425.74,255.75z"/>
	<path class="st12" d="M187.69,272.77c-4.88-0.02-9.76-0.11-14.63-0.04c-1.83,0.03-2.47-0.6-2.44-2.44
		c0.07-4.88-0.02-9.76-0.05-14.63c0.05-5.65,0.1-11.3,0.14-16.95c11.31,0.02,22.62,0.04,33.93,0.06
		c-0.01,11.31-0.01,22.63-0.02,33.94c-0.31,0.21,0.12-0.01-0.2,0.19C201.96,274.43,190.14,274.33,187.69,272.77z"/>
	<path class="st5" d="M340.75,306.67c4.91,0.01,9.81,0.08,14.72,0.01c1.72-0.02,2.32,0.58,2.3,2.29c-0.06,4.9,0.01,9.81,0.04,14.71
		c-5.68-0.01-11.35-0.01-17.03-0.02C340.76,318.01,340.75,312.34,340.75,306.67z"/>
	<path class="st3" d="M153.66,306.67c4.91,0.01,9.81,0.08,14.72,0.01c1.72-0.02,2.32,0.58,2.29,2.29c-0.07,4.9,0,9.81,0.01,14.72
		c-5.67-0.01-11.33-0.02-17-0.02C153.68,318,153.67,312.34,153.66,306.67z"/>
	<path class="st13" d="M187.69,272.77c5.64-0.02,11.29-0.04,16.93-0.06c0.01,4.89-0.05,9.78,0.08,14.66
		c0.05,1.9-0.65,2.41-2.45,2.36c-4.13-0.11-8.27-0.11-12.41,0c-1.78,0.05-2.25-0.64-2.22-2.3
		C187.72,282.54,187.68,277.65,187.69,272.77z"/>
	<path class="st14" d="M374.77,272.77c5.64-0.02,11.29-0.04,16.93-0.06c0.01,4.89-0.05,9.78,0.08,14.66
		c0.05,1.9-0.65,2.41-2.45,2.36c-4.13-0.11-8.27-0.11-12.41,0c-1.78,0.05-2.25-0.64-2.22-2.31
		C374.8,282.54,374.76,277.65,374.77,272.77z"/>
</g>
</svg>
